#!OML:ASF I:\Actors\actors\Patient Classification 2\Patient 1\Session 1\actor1.ASF
:FULLY-SPECIFIED
:DEGREES
115
root -0.755451 18.8135 5.04889 6.27878 -2.21961 -1.89874
lowerback 9.50197 2.05977 -1.32502
upperback 2.9747 2.6115 0.306019
thorax -2.30781 1.2968 0.764227
lowerneck -13.9191 -3.51259 -5.27719
upperneck 31.0288 -5.14543 4.75581
head 12.9334 -2.263 1.97959
rclavicle -1.08338e-014 -1.68967e-015
rhumerus 6.01341 38.9959 -73.4706
rradius 64.2518
rwrist -5.33923
rhand -13.1237 -53.036
rfingers 7.12502
rthumb 12.9739 -82.6126
lclavicle -1.08338e-014 -1.68967e-015
lhumerus 8.77201 -34.1103 85.1578
lradius 65.6581
lwrist 24.2855
lhand -19.8069 -8.90286
lfingers 7.12502
lthumb 6.5262 20.9766
rfemur 0 0 0
rtibia 0
rfoot 0 0
rtoes 0
lfemur -11.1054 -8.1514 -11.3496
ltibia 21.372
lfoot -23.3025 17.9399
ltoes -53.3783
116
root -0.762421 18.8156 5.05076 6.39654 -2.28206 -1.87635
lowerback 9.29726 2.10431 -1.48483
upperback 3.11804 2.66312 0.435928
thorax -2.06123 1.32013 0.992618
lowerneck -14.2825 -3.53882 -5.59754
upperneck 31.1121 -5.13912 4.94034
head 13.0626 -2.26732 2.10522
rclavicle -8.64713e-015 3.97569e-015
rhumerus 5.94229 38.8174 -74.3554
rradius 64.2158
rwrist -9.14212
rhand -17.8745 -52.2872
rfingers 7.12502
rthumb 8.39146 -82.1005
lclavicle -8.64713e-015 3.97569e-015
lhumerus 7.91434 -32.7653 87.1926
lradius 65.7481
lwrist 23.5894
lhand -20.1958 -10.1736
lfingers 7.12502
lthumb 6.15074 19.7171
rfemur 0 0 0
rtibia 0
rfoot 0 0
rtoes 0
lfemur -11.1968 -8.03552 -11.3437
ltibia 21.3398
lfoot -23.2453 17.9332
ltoes -53.4334
117
root -0.76987 18.8159 5.0576 6.45304 -2.36229 -1.87705
lowerback 9.26072 2.13191 -1.51569
upperback 3.1077 2.697 0.419752
thorax -2.05342 1.33699 0.990551
lowerneck -14.5447 -3.53115 -5.58102
upperneck 31.3737 -5.17489 5.06674
head 13.2358 -2.25963 2.14764
rclavicle -8.69683e-015 1.17283e-014
rhumerus 5.21642 37.1089 -75.8701
rradius 64.1947
rwrist -6.63593
rhand -12.7886 -52.0378
rfingers 7.12502
rthumb 13.297 -81.5936
lclavicle -8.69683e-015 1.17283e-014
lhumerus 7.12778 -31.8289 88.6974
lradius 65.6932
lwrist 22.548
lhand -20.4899 -11.4763
lfingers 7.12502
lthumb 5.86689 18.4225
rfemur 0 0 0
rtibia 0
rfoot 0 0
rtoes 0
lfemur -11.18 -7.95521 -11.3201
ltibia 21.2987
lfoot -23.2657 17.9125
ltoes -53.3986
118
root -0.773346 18.814 5.06821 6.44923 -2.43866 -1.8536
lowerback 9.27022 2.16022 -1.48637
upperback 3.05688 2.73536 0.366792
thorax -2.10846 1.35683 0.913695
lowerneck -14.6925 -3.53586 -5.47606
upperneck 31.5738 -5.20346 5.03048
head 13.3505 -2.26126 2.11214
rclavicle -2.49972e-014 4.37326e-015
rhumerus 4.54617 36.1894 -76.8655
rradius 64.4794
rwrist -5.88092
rhand -10.7487 -51.1281
rfingers 7.12502
rthumb 15.2626 -80.545
lclavicle -2.49972e-014 4.37326e-015
lhumerus 6.51998 -31.4779 89.5442
lradius 65.7428
lwrist 21.7849
lhand -20.7147 -12.6479
lfingers 7.12502
lthumb 5.64986 17.2568
rfemur 0 0 0
rtibia 0
rfoot 0 0
rtoes 0
lfemur -11.0879 -7.9263 -11.3531
ltibia 21.2668
lfoot -23.331 17.9281
ltoes -53.3617
119
root -0.774795 18.8118 5.08184 6.38867 -2.49348 -1.86069
lowerback 9.26168 2.17411 -1.45009
upperback 3.00567 2.75692 0.361676
thorax -2.15546 1.36817 0.884809
lowerneck -14.7086 -3.52303 -5.3839
upperneck 31.6694 -5.18439 4.9357
head 13.3873 -2.25377 2.06303
rclavicle -1.44864e-014 -5.56597e-015
rhumerus 4.21537 36.0125 -77.1952
rradius 64.8963
rwrist -6.27021
rhand -10.1239 -50.5374
rfingers 7.12502
rthumb 15.8643 -79.9075
lclavicle -1.44864e-014 -5.56597e-015
lhumerus 6.04704 -31.6052 89.7149
lradius 66.0594
lwrist 21.3068
lhand -20.6432 -13.7067
lfingers 7.12502
lthumb 5.7188 16.1961
rfemur 0 0 0
rtibia 0
rfoot 0 0
rtoes 0
lfemur -10.9419 -7.89513 -11.3726
ltibia 21.2497
lfoot -23.379 17.9526
ltoes -53.28
120
root -0.776856 18.8107 5.09701 6.30203 -2.47447 -1.87198
lowerback 9.20831 2.10391 -1.49022
upperback 2.96384 2.66128 0.36236
thorax -2.16854 1.32101 0.919714
lowerneck -14.7862 -3.43581 -5.16845
upperneck 31.8275 -5.10012 4.85575
head 13.4563 -2.20063 2.00897
rclavicle 5.5287e-014 -9.0447e-015
rhumerus 3.88304 36.412 -77.1592
rradius 65.7919
rwrist -7.15813
rhand -9.65905 -50.4482
rfingers 7.12502
rthumb 16.312 -79.7821
lclavicle 5.5287e-014 -9.0447e-015
lhumerus 5.68498 -31.9941 89.1515
lradius 66.686
lwrist 20.9944
lhand -20.1726 -14.5489
lfingers 7.12502
lthumb 6.17323 15.3412
rfemur 0 0 0
rtibia 0
rfoot 0 0
rtoes 0
lfemur -10.8031 -7.8542 -11.3762
ltibia 21.2506
lfoot -23.3178 17.9423
ltoes -53.2431
